<?xml version="1.0" encoding="utf-8"?>
<!-- Generator: Adobe Illustrator 24.1.2, SVG Export Plug-In . SVG Version: 6.00 Build 0)  -->
<svg version="1.1" id="Layer_1" xmlns="http://www.w3.org/2000/svg" xmlns:xlink="http://www.w3.org/1999/xlink" x="0px" y="0px"
	 viewBox="0 0 1200 133.1" style="enable-background:new 0 0 1200 133.1;" xml:space="preserve">
<style type="text/css">
	.st0{fill:#2D3F6A;}
</style>
<g>
	<g>
		<path class="st0" d="M180.8,2.03l-64.34,38.64l0.02,0.02L68.23,69.76l-0.08-0.08L38.27,87.64v-44.1l19.37,11.68l34.54-20.8l0,0
			L38.27,2.03L2.55,22.02v87.07l35.72,19.98v-0.32l0.57,0.32l70.69-42.6l-14.25,8.78l54.56-32.87l-5.7,3.24l36.65-22.08v44.1
			l-19.22-11.55l-2.73,1.64l-31.91,19.23l53.29,32.11l0.57-0.32v0.32l35.72-19.98V22.02L180.8,2.03z"/>
	</g>
	<path class="st0" d="M362.27,56.1v60.16h-0.19l0.19,2.04c-11.39,8.17-25.62,12.26-42.71,12.26c-19.81,0-35.81-5.76-48-17.27
		c-12.19-11.51-18.29-27.17-18.29-46.98c0-19.31,6.28-34.91,18.85-46.79C284.69,7.64,300.57,1.7,319.75,1.7
		c14.23,0,26.43,2.66,36.58,7.98v23.95c-11.39-6.81-23.46-10.21-36.21-10.21c-12.5,0-22.59,3.9-30.26,11.7
		c-7.68,7.8-11.51,18.2-11.51,31.19c0,13.25,3.74,23.67,11.23,31.29c7.49,7.61,17.79,11.42,30.92,11.42
		c6.43,0,12.69-1.11,18.75-3.34V76.15h-23.03V56.1H362.27z"/>
	<path class="st0" d="M410.55,109.95h51.06v19.12h-74.64V3.92h73.9v19.13h-50.32v33.98h44.75v18.94h-44.75V109.95z"/>
	<path class="st0" d="M485,129.07V3.92h26.55l30.08,52.18c4.95,8.54,9.38,16.5,13.28,23.86c3.9,7.37,6.53,12.6,7.89,15.69l2.04,4.64
		c-0.99-10.27-1.48-25-1.48-44.19V3.92h23.58v125.15H560.2l-30.45-51.99c-4.83-8.17-9.19-16-13.09-23.49
		c-3.9-7.49-6.59-12.9-8.08-16.25l-2.23-5.2c1.36,11.76,2.04,26.68,2.04,44.75v52.17H485z"/>
	<path class="st0" d="M609.36,66.13c0-19.43,5.35-35.03,16.06-46.79C636.13,7.58,650.46,1.7,668.41,1.7
		c18.2,0,32.62,5.85,43.26,17.55c10.64,11.7,15.97,27.33,15.97,46.88c0,19.31-5.36,34.85-16.06,46.61
		c-10.71,11.76-25.04,17.64-42.98,17.64c-17.95,0-32.31-5.88-43.08-17.64C614.75,100.97,609.36,85.44,609.36,66.13z M634.43,66.13
		c0,13.12,3.09,23.52,9.28,31.19c6.19,7.68,14.48,11.51,24.88,11.51c10.52,0,18.81-3.81,24.88-11.42c6.06-7.61,9.1-18.04,9.1-31.29
		c0-13.24-3.04-23.7-9.1-31.38c-6.07-7.67-14.42-11.51-25.07-11.51c-10.52,0-18.82,3.84-24.88,11.51
		C637.46,42.42,634.43,52.88,634.43,66.13z"/>
	<path class="st0" d="M752.91,129.07L762.94,3.92h26.74l17.08,45.49c2.97,7.68,5.76,15.32,8.35,22.93
		c2.6,7.61,4.46,13.28,5.57,16.99l1.67,5.76c3.84-12.87,9.16-28.1,15.97-45.68l17.45-45.49h26.74l12.25,125.15h-23.39l-4.46-48.83
		l-3.34-43.82c-4.46,12.75-9.78,27.36-15.97,43.82l-17.45,46.98h-15.97L797.1,80.24l-14.67-43.26c0,6.07-0.81,20.49-2.41,43.26
		l-3.71,48.83H752.91z"/>
	<path class="st0" d="M920.02,129.07V3.92h23.4v125.15H920.02z"/>
	<path class="st0" d="M970.89,129.07V3.92h23.4v125.15H970.89z M1024,66.68l46.6,62.39h-29.52l-44.93-62.02l43.26-63.13h28.04
		L1024,66.68z"/>
	<path class="st0" d="M1172.64,129.07l-8.91-28.41h-47.35l-8.91,28.41h-24.51l42.33-125.15h30.27l42.33,125.15H1172.64z
		 M1122.51,81.54h35.28l-1.67-5.57c-4.21-13.37-7.65-24.6-10.31-33.7c-2.66-9.1-4.3-14.82-4.92-17.18l-0.74-3.71
		c-1.11,6.19-6.44,24.45-15.97,54.78L1122.51,81.54z"/>
</g>
</svg>
